<svg viewBox="0 0 853 711"><path d="M344.709,564.734c-18.912,11.616 -51.503,17.322 -97.231,17.322l-67.65,0l0,-155.169l70.572,0c46.963,0 79.422,5.907 96.687,17.707c17.547,11.806 26.179,32.653 26.179,62.578c0,26.781 -9.46,46.015 -28.557,57.562Zm-164.881,-407.281l41.569,0c48.041,0 80.316,5.425 96.972,16.216c16.437,10.856 24.815,29.578 24.815,56.262c0,25.669 -8.918,43.753 -26.562,54.356c-17.866,10.407 -50.453,15.675 -98.147,15.675l-38.647,0l0,-142.509Zm334.328,222.981c-28.306,-31.634 -67.65,-49.409 -118.14,-53.25c44.906,-12.243 77.521,-30.143 98.15,-54.068c20.531,-23.607 30.715,-55.654 30.715,-95.985c0,-31.925 -6.978,-60.172 -20.5,-84.569c-13.862,-24.246 -33.794,-43.665 -59.972,-58.193c-22.912,-12.6 -50.134,-21.485 -81.868,-26.725c-31.891,-5.078 -87.71,-7.644 -167.8,-7.644l-194.741,0l0,710.225l200.644,0c80.597,0 138.731,-2.822 174.272,-8.222c35.506,-5.581 65.303,-14.975 89.421,-27.853c29.829,-15.744 52.579,-38.144 68.479,-66.925c15.993,-28.875 23.925,-62.169 23.925,-100.247c0,-52.669 -14.188,-95 -42.585,-126.544Z"/><path d="M762.328,530.303c-49.709,0 -89.978,40.241 -89.978,89.947c0,49.706 40.269,89.975 89.978,89.975c49.644,0 89.947,-40.269 89.947,-89.975c0,-49.706 -40.303,-89.947 -89.947,-89.947Z"/><rect x="684.187" y="0" width="156.25" height="473.484"/></svg>
